<svg width="62" height="62" viewBox="0 0 62 62" fill="none" xmlns="http://www.w3.org/2000/svg">
<path d="M61.7161 30.9018C61.7161 33.3344 59.7441 35.3064 57.3115 35.3064H40.6507C37.6892 35.3064 35.2885 37.7071 35.2885 40.6685V57.3293C35.2885 59.7619 33.3165 61.7339 30.8839 61.7339C28.4513 61.7339 26.4793 59.7619 26.4793 57.3293V40.6685C26.4793 37.7071 24.0786 35.3064 21.1172 35.3064H4.45635C2.02376 35.3064 0.0517578 33.3344 0.0517578 30.9018C0.0517578 28.4692 2.02376 26.4972 4.45635 26.4972H21.1172C24.0786 26.4972 26.4793 24.0965 26.4793 21.135V4.47417C26.4793 2.04158 28.4513 0.0695801 30.8839 0.0695801C33.3165 0.0695801 35.2885 2.04159 35.2885 4.47418V21.1351C35.2885 24.0965 37.6892 26.4972 40.6507 26.4972H57.3115C59.7441 26.4972 61.7161 28.4692 61.7161 30.9018Z" fill="#FFFFFF"/>
</svg>
